QuixoticSeven-Regular.ufo
<glyph name="zero" format="2">
  <advance width="633"/>
  <unicode hex="0030"/>
  <outline>
    <contour>
      <point x="136.0" y="414.0" type="line" smooth="yes"/>
      <point x="98.0" y="452.0" type="line" smooth="yes"/>
      <point x="98.0" y="710.0" type="line" smooth="yes"/>
      <point x="136.0" y="748.0" type="line" smooth="yes"/>
      <point x="174.0" y="710.0" type="line" smooth="yes"/>
      <point x="174.0" y="452.0" type="line" smooth="yes"/>
    </contour>
    <contour>
      <point x="136.0" y="52.0" type="line" smooth="yes"/>
      <point x="98.0" y="90.0" type="line" smooth="yes"/>
      <point x="98.0" y="348.0" type="line" smooth="yes"/>
      <point x="136.0" y="386.0" type="line" smooth="yes"/>
      <point x="174.0" y="348.0" type="line" smooth="yes"/>
      <point x="174.0" y="90.0" type="line" smooth="yes"/>
    </contour>
    <contour>
      <point x="150.0" y="38.0" type="line" smooth="yes"/>
      <point x="188.0" y="76.0" type="line" smooth="yes"/>
      <point x="445.0" y="76.0" type="line" smooth="yes"/>
      <point x="483.0" y="38.0" type="line" smooth="yes"/>
      <point x="445.0" y="0.0" type="line" smooth="yes"/>
      <point x="188.0" y="0.0" type="line" smooth="yes"/>
    </contour>
    <contour>
      <point x="497.0" y="52.0" type="line" smooth="yes"/>
      <point x="459.0" y="90.0" type="line" smooth="yes"/>
      <point x="459.0" y="348.0" type="line" smooth="yes"/>
      <point x="497.0" y="386.0" type="line" smooth="yes"/>
      <point x="535.0" y="348.0" type="line" smooth="yes"/>
      <point x="535.0" y="90.0" type="line" smooth="yes"/>
    </contour>
    <contour>
      <point x="497.0" y="414.0" type="line" smooth="yes"/>
      <point x="459.0" y="452.0" type="line" smooth="yes"/>
      <point x="459.0" y="710.0" type="line" smooth="yes"/>
      <point x="497.0" y="748.0" type="line" smooth="yes"/>
      <point x="535.0" y="710.0" type="line" smooth="yes"/>
      <point x="535.0" y="452.0" type="line" smooth="yes"/>
    </contour>
    <contour>
      <point x="483.0" y="762.0" type="line" smooth="yes"/>
      <point x="445.0" y="724.0" type="line" smooth="yes"/>
      <point x="188.0" y="724.0" type="line" smooth="yes"/>
      <point x="150.0" y="762.0" type="line" smooth="yes"/>
      <point x="188.0" y="800.0" type="line" smooth="yes"/>
      <point x="445.0" y="800.0" type="line" smooth="yes"/>
    </contour>
  </outline>
</glyph>
<glyph name="colon" format="2">
  <advance width="211"/>
  <unicode hex="003A"/>
  <outline>
    <contour>
      <point x="58.0" y="240.0" type="curve" smooth="yes"/>
      <point x="58.0" y="266.0"/>
      <point x="79.0" y="288.0"/>
      <point x="105.0" y="288.0" type="curve" smooth="yes"/>
      <point x="131.0" y="288.0"/>
      <point x="152.0" y="266.0"/>
      <point x="152.0" y="240.0" type="curve" smooth="yes"/>
      <point x="152.0" y="214.0"/>
      <point x="131.0" y="192.0"/>
      <point x="105.0" y="192.0" type="curve" smooth="yes"/>
      <point x="79.0" y="192.0"/>
      <point x="58.0" y="214.0"/>
    </contour>
    <contour>
      <point x="58.0" y="560.0" type="curve" smooth="yes"/>
      <point x="58.0" y="586.0"/>
      <point x="79.0" y="608.0"/>
      <point x="105.0" y="608.0" type="curve" smooth="yes"/>
      <point x="131.0" y="608.0"/>
      <point x="152.0" y="586.0"/>
      <point x="152.0" y="560.0" type="curve" smooth="yes"/>
      <point x="152.0" y="534.0"/>
      <point x="131.0" y="512.0"/>
      <point x="105.0" y="512.0" type="curve" smooth="yes"/>
      <point x="79.0" y="512.0"/>
      <point x="58.0" y="534.0"/>
    </contour>
  </outline>
</glyph>
<glyph name="less" format="2">
  <advance width="583"/>
  <unicode hex="003C"/>
  <outline>
    <contour>
      <point x="124.0" y="400.0" type="line" smooth="yes"/>
      <point x="162.0" y="438.0" type="line" smooth="yes"/>
      <point x="421.0" y="438.0" type="line" smooth="yes"/>
      <point x="459.0" y="400.0" type="line" smooth="yes"/>
      <point x="421.0" y="362.0" type="line" smooth="yes"/>
      <point x="162.0" y="362.0" type="line" smooth="yes"/>
    </contour>
    <contour>
      <point x="110.0" y="414.0" type="line" smooth="yes"/>
      <point x="72.0" y="452.0" type="line" smooth="yes"/>
      <point x="72.0" y="710.0" type="line" smooth="yes"/>
      <point x="110.0" y="748.0" type="line" smooth="yes"/>
      <point x="148.0" y="710.0" type="line" smooth="yes"/>
      <point x="148.0" y="452.0" type="line" smooth="yes"/>
    </contour>
    <contour>
      <point x="459.0" y="762.0" type="line" smooth="yes"/>
      <point x="421.0" y="724.0" type="line" smooth="yes"/>
      <point x="162.0" y="724.0" type="line" smooth="yes"/>
      <point x="124.0" y="762.0" type="line" smooth="yes"/>
      <point x="162.0" y="800.0" type="line" smooth="yes"/>
      <point x="421.0" y="800.0" type="line" smooth="yes"/>
    </contour>
  </outline>
</glyph>
<glyph name="greater" format="2">
  <advance width="583"/>
  <unicode hex="003E"/>
  <outline>
    <contour>
      <point x="124.0" y="400.0" type="line" smooth="yes"/>
      <point x="162.0" y="438.0" type="line" smooth="yes"/>
      <point x="421.0" y="438.0" type="line" smooth="yes"/>
      <point x="459.0" y="400.0" type="line" smooth="yes"/>
      <point x="421.0" y="362.0" type="line" smooth="yes"/>
      <point x="162.0" y="362.0" type="line" smooth="yes"/>
    </contour>
    <contour>
      <point x="473.0" y="414.0" type="line" smooth="yes"/>
      <point x="435.0" y="452.0" type="line" smooth="yes"/>
      <point x="435.0" y="710.0" type="line" smooth="yes"/>
      <point x="473.0" y="748.0" type="line" smooth="yes"/>
      <point x="511.0" y="710.0" type="line" smooth="yes"/>
      <point x="511.0" y="452.0" type="line" smooth="yes"/>
    </contour>
    <contour>
      <point x="459.0" y="762.0" type="line" smooth="yes"/>
      <point x="421.0" y="724.0" type="line" smooth="yes"/>
      <point x="162.0" y="724.0" type="line" smooth="yes"/>
      <point x="124.0" y="762.0" type="line" smooth="yes"/>
      <point x="162.0" y="800.0" type="line" smooth="yes"/>
      <point x="421.0" y="800.0" type="line" smooth="yes"/>
    </contour>
  </outline>
</glyph>
<glyph name="L" format="2">
  <advance width="583"/>
  <unicode hex="004C"/>
  <outline>
    <contour>
      <point x="110.0" y="414.0" type="line" smooth="yes"/>
      <point x="72.0" y="452.0" type="line" smooth="yes"/>
      <point x="72.0" y="710.0" type="line" smooth="yes"/>
      <point x="110.0" y="748.0" type="line" smooth="yes"/>
      <point x="148.0" y="710.0" type="line" smooth="yes"/>
      <point x="148.0" y="452.0" type="line" smooth="yes"/>
    </contour>
    <contour>
      <point x="110.0" y="52.0" type="line" smooth="yes"/>
      <point x="72.0" y="90.0" type="line" smooth="yes"/>
      <point x="72.0" y="348.0" type="line" smooth="yes"/>
      <point x="110.0" y="386.0" type="line" smooth="yes"/>
      <point x="148.0" y="348.0" type="line" smooth="yes"/>
      <point x="148.0" y="90.0" type="line" smooth="yes"/>
    </contour>
    <contour>
      <point x="124.0" y="38.0" type="line" smooth="yes"/>
      <point x="162.0" y="76.0" type="line" smooth="yes"/>
      <point x="421.0" y="76.0" type="line" smooth="yes"/>
      <point x="459.0" y="38.0" type="line" smooth="yes"/>
      <point x="421.0" y="0.0" type="line" smooth="yes"/>
      <point x="162.0" y="0.0" type="line" smooth="yes"/>
    </contour>
  </outline>
</glyph>
<glyph name="underscore" format="2">
  <advance width="583"/>
  <unicode hex="005F"/>
  <outline>
    <contour>
      <point x="124.0" y="38.0" type="line" smooth="yes"/>
      <point x="162.0" y="76.0" type="line" smooth="yes"/>
      <point x="421.0" y="76.0" type="line" smooth="yes"/>
      <point x="459.0" y="38.0" type="line" smooth="yes"/>
      <point x="421.0" y="0.0" type="line" smooth="yes"/>
      <point x="162.0" y="0.0" type="line" smooth="yes"/>
    </contour>
  </outline>
</glyph>
<glyph name="r" format="2">
  <advance width="633"/>
  <unicode hex="0072"/>
  <outline>
    <contour>
      <point x="150.0" y="400.0" type="line" smooth="yes"/>
      <point x="188.0" y="438.0" type="line" smooth="yes"/>
      <point x="445.0" y="438.0" type="line" smooth="yes"/>
      <point x="483.0" y="400.0" type="line" smooth="yes"/>
      <point x="445.0" y="362.0" type="line" smooth="yes"/>
      <point x="188.0" y="362.0" type="line" smooth="yes"/>
    </contour>
    <contour>
      <point x="136.0" y="52.0" type="line" smooth="yes"/>
      <point x="98.0" y="90.0" type="line" smooth="yes"/>
      <point x="98.0" y="348.0" type="line" smooth="yes"/>
      <point x="136.0" y="386.0" type="line" smooth="yes"/>
      <point x="174.0" y="348.0" type="line" smooth="yes"/>
      <point x="174.0" y="90.0" type="line" smooth="yes"/>
    </contour>
  </outline>
</glyph>
<glyph name="u" format="2">
  <advance width="633"/>
  <unicode hex="0075"/>
  <outline>
    <contour>
      <point x="136.0" y="52.0" type="line" smooth="yes"/>
      <point x="98.0" y="90.0" type="line" smooth="yes"/>
      <point x="98.0" y="348.0" type="line" smooth="yes"/>
      <point x="136.0" y="386.0" type="line" smooth="yes"/>
      <point x="174.0" y="348.0" type="line" smooth="yes"/>
      <point x="174.0" y="90.0" type="line" smooth="yes"/>
    </contour>
    <contour>
      <point x="150.0" y="38.0" type="line" smooth="yes"/>
      <point x="188.0" y="76.0" type="line" smooth="yes"/>
      <point x="445.0" y="76.0" type="line" smooth="yes"/>
      <point x="483.0" y="38.0" type="line" smooth="yes"/>
      <point x="445.0" y="0.0" type="line" smooth="yes"/>
      <point x="188.0" y="0.0" type="line" smooth="yes"/>
    </contour>
    <contour>
      <point x="497.0" y="52.0" type="line" smooth="yes"/>
      <point x="459.0" y="90.0" type="line" smooth="yes"/>
      <point x="459.0" y="348.0" type="line" smooth="yes"/>
      <point x="497.0" y="386.0" type="line" smooth="yes"/>
      <point x="535.0" y="348.0" type="line" smooth="yes"/>
      <point x="535.0" y="90.0" type="line" smooth="yes"/>
    </contour>
  </outline>
</glyph>
<glyph name="asciitilde" format="2">
  <advance width="633"/>
  <unicode hex="007E"/>
  <outline>
    <contour>
      <point x="483.0" y="762.0" type="line" smooth="yes"/>
      <point x="445.0" y="724.0" type="line" smooth="yes"/>
      <point x="188.0" y="724.0" type="line" smooth="yes"/>
      <point x="150.0" y="762.0" type="line" smooth="yes"/>
      <point x="188.0" y="800.0" type="line" smooth="yes"/>
      <point x="445.0" y="800.0" type="line" smooth="yes"/>
    </contour>
  </outline>
</glyph>
<glyph name="ellipsis" format="2">
  <advance width="583"/>
  <unicode hex="2026"/>
  <outline>
    <contour>
      <point x="536.0" y="0.0" type="curve" smooth="yes"/>
      <point x="536.0" y="26.0"/>
      <point x="557.0" y="48.0"/>
      <point x="583.0" y="48.0" type="curve" smooth="yes"/>
      <point x="609.0" y="48.0"/>
      <point x="630.0" y="26.0"/>
      <point x="630.0" y="0.0" type="curve" smooth="yes"/>
      <point x="630.0" y="-26.0"/>
      <point x="609.0" y="-48.0"/>
      <point x="583.0" y="-48.0" type="curve" smooth="yes"/>
      <point x="557.0" y="-48.0"/>
      <point x="536.0" y="-26.0"/>
    </contour>
    <contour>
      <point x="110.0" y="52.0" type="line" smooth="yes"/>
      <point x="72.0" y="90.0" type="line" smooth="yes"/>
      <point x="72.0" y="348.0" type="line" smooth="yes"/>
      <point x="110.0" y="386.0" type="line" smooth="yes"/>
      <point x="148.0" y="348.0" type="line" smooth="yes"/>
      <point x="148.0" y="90.0" type="line" smooth="yes"/>
    </contour>
    <contour>
      <point x="473.0" y="52.0" type="line" smooth="yes"/>
      <point x="435.0" y="90.0" type="line" smooth="yes"/>
      <point x="435.0" y="348.0" type="line" smooth="yes"/>
      <point x="473.0" y="386.0" type="line" smooth="yes"/>
      <point x="511.0" y="348.0" type="line" smooth="yes"/>
      <point x="511.0" y="90.0" type="line" smooth="yes"/>
    </contour>
  </outline>
</glyph>
<glyph name="unie674" format="2">
  <advance width="583"/>
  <unicode hex="E674"/>
  <outline>
    <contour>
      <point x="124.0" y="38.0" type="line" smooth="yes"/>
      <point x="162.0" y="76.0" type="line" smooth="yes"/>
      <point x="421.0" y="76.0" type="line" smooth="yes"/>
      <point x="459.0" y="38.0" type="line" smooth="yes"/>
      <point x="421.0" y="0.0" type="line" smooth="yes"/>
      <point x="162.0" y="0.0" type="line" smooth="yes"/>
    </contour>
    <contour>
      <point x="473.0" y="52.0" type="line" smooth="yes"/>
      <point x="435.0" y="90.0" type="line" smooth="yes"/>
      <point x="435.0" y="348.0" type="line" smooth="yes"/>
      <point x="473.0" y="386.0" type="line" smooth="yes"/>
      <point x="511.0" y="348.0" type="line" smooth="yes"/>
      <point x="511.0" y="90.0" type="line" smooth="yes"/>
    </contour>
  </outline>
</glyph>
<glyph name=".notdef" format="2">
  <advance width="633"/>
  <outline>
    <contour>
      <point x="174.0" y="76.0" type="line" smooth="yes"/>
      <point x="460.0" y="76.0" type="line" smooth="yes"/>
      <point x="460.0" y="724.0" type="line" smooth="yes"/>
      <point x="174.0" y="724.0" type="line" smooth="yes"/>
    </contour>
    <contour>
      <point x="98.0" y="0.0" type="line" smooth="yes"/>
      <point x="98.0" y="800.0" type="line" smooth="yes"/>
      <point x="536.0" y="800.0" type="line" smooth="yes"/>
      <point x="536.0" y="0.0" type="line" smooth="yes"/>
    </contour>
  </outline>
</glyph>
<glyph name="segment-g" format="2">
  <outline>
    <contour>
      <point x="152.0" y="400.0" type="line" smooth="yes"/>
      <point x="190.0" y="438.0" type="line" smooth="yes"/>
      <point x="410.0" y="438.0" type="line" smooth="yes"/>
      <point x="448.0" y="400.0" type="line" smooth="yes"/>
      <point x="410.0" y="362.0" type="line" smooth="yes"/>
      <point x="190.0" y="362.0" type="line" smooth="yes"/>
    </contour>
  </outline>
</glyph>
<glyph name="segment-h" format="2">
  <outline>
    <contour>
      <point x="196.0" y="704.0" type="line" smooth="yes"/>
      <point x="206.0" y="704.0" type="line" smooth="yes"/>
      <point x="242.0" y="614.0" type="line" smooth="yes"/>
      <point x="242.0" y="458.0" type="line" smooth="yes"/>
      <point x="232.0" y="458.0" type="line" smooth="yes"/>
      <point x="196.0" y="548.0" type="line" smooth="yes"/>
    </contour>
  </outline>
</glyph>
<glyph name="segment-i" format="2">
  <outline>
    <contour>
      <point x="262.0" y="704.0" type="line" smooth="yes"/>
      <point x="338.0" y="704.0" type="line" smooth="yes"/>
      <point x="338.0" y="452.0" type="line" smooth="yes"/>
      <point x="300.0" y="414.0" type="line" smooth="yes"/>
      <point x="262.0" y="452.0" type="line" smooth="yes"/>
    </contour>
  </outline>
</glyph>
<glyph name="segment-k" format="2">
  <advance height="96" width="196"/>
  <outline>
    <contour>
      <point x="196.0" y="96.0" type="line" smooth="yes"/>
      <point x="196.0" y="252.0" type="line" smooth="yes"/>
      <point x="232.0" y="342.0" type="line" smooth="yes"/>
      <point x="242.0" y="342.0" type="line" smooth="yes"/>
      <point x="242.0" y="186.0" type="line" smooth="yes"/>
      <point x="206.0" y="96.0" type="line" smooth="yes"/>
    </contour>
  </outline>
</glyph>
<glyph name="segment-l" format="2">
  <outline>
    <contour>
      <point x="262.0" y="96.0" type="line" smooth="yes"/>
      <point x="262.0" y="348.0" type="line" smooth="yes"/>
      <point x="300.0" y="386.0" type="line" smooth="yes"/>
      <point x="338.0" y="348.0" type="line" smooth="yes"/>
      <point x="338.0" y="96.0" type="line" smooth="yes"/>
    </contour>
  </outline>
</glyph>
<glyph name="segment-r" format="2">
  <advance width="600"/>
  <outline>
    <contour>
      <point x="552.0" y="0.0" type="curve" smooth="yes"/>
      <point x="552.0" y="26.0"/>
      <point x="574.0" y="48.0"/>
      <point x="600.0" y="48.0" type="curve" smooth="yes"/>
      <point x="626.0" y="48.0"/>
      <point x="648.0" y="26.0"/>
      <point x="648.0" y="0.0" type="curve" smooth="yes"/>
      <point x="648.0" y="-26.0"/>
      <point x="626.0" y="-48.0"/>
      <point x="600.0" y="-48.0" type="curve" smooth="yes"/>
      <point x="574.0" y="-48.0"/>
      <point x="552.0" y="-26.0"/>
    </contour>
  </outline>
</glyph>
<glyph name="segment_d" format="2">
  <outline>
    <contour>
      <point x="150.0" y="38.0" type="line" smooth="yes"/>
      <point x="188.0" y="76.0" type="line" smooth="yes"/>
      <point x="445.0" y="76.0" type="line" smooth="yes"/>
      <point x="483.0" y="38.0" type="line" smooth="yes"/>
      <point x="445.0" y="0.0" type="line" smooth="yes"/>
      <point x="188.0" y="0.0" type="line" smooth="yes"/>
    </contour>
  </outline>
</glyph>
<glyph name="segment_f" format="2">
  <outline>
    <contour>
      <point x="136.0" y="414.0" type="line" smooth="yes"/>
      <point x="98.0" y="452.0" type="line" smooth="yes"/>
      <point x="98.0" y="710.0" type="line" smooth="yes"/>
      <point x="136.0" y="748.0" type="line" smooth="yes"/>
      <point x="174.0" y="710.0" type="line" smooth="yes"/>
      <point x="174.0" y="452.0" type="line" smooth="yes"/>
    </contour>
  </outline>
</glyph>
<glyph name="segment_h" format="2">
  <outline>
    <contour>
      <point x="194.0" y="704.0" type="line" smooth="yes"/>
      <point x="204.0" y="704.0" type="line" smooth="yes"/>
      <point x="259.0" y="599.0" type="line" smooth="yes"/>
      <point x="259.0" y="458.0" type="line" smooth="yes"/>
      <point x="249.0" y="458.0" type="line" smooth="yes"/>
      <point x="194.0" y="563.0" type="line" smooth="yes"/>
    </contour>
  </outline>
</glyph>
<glyph name="segment_i" format="2">
  <outline>
    <contour>
      <point x="278.0" y="704.0" type="line" smooth="yes"/>
      <point x="354.0" y="704.0" type="line" smooth="yes"/>
      <point x="354.0" y="452.0" type="line" smooth="yes"/>
      <point x="316.0" y="414.0" type="line" smooth="yes"/>
      <point x="278.0" y="452.0" type="line" smooth="yes"/>
    </contour>
  </outline>
</glyph>
<glyph name="segment_j" format="2">
  <outline>
    <contour>
      <point x="404.0" y="704.0" type="line" smooth="yes"/>
      <point x="404.0" y="548.0" type="line" smooth="yes"/>
      <point x="368.0" y="458.0" type="line" smooth="yes"/>
      <point x="358.0" y="458.0" type="line" smooth="yes"/>
      <point x="358.0" y="614.0" type="line" smooth="yes"/>
      <point x="394.0" y="704.0" type="line" smooth="yes"/>
    </contour>
  </outline>
</glyph>
<glyph name="segment_k" format="2">
  <advance height="96" width="194"/>
  <outline>
    <contour>
      <point x="194.0" y="96.0" type="line" smooth="yes"/>
      <point x="194.0" y="237.0" type="line" smooth="yes"/>
      <point x="249.0" y="342.0" type="line" smooth="yes"/>
      <point x="259.0" y="342.0" type="line" smooth="yes"/>
      <point x="259.0" y="201.0" type="line" smooth="yes"/>
      <point x="204.0" y="96.0" type="line" smooth="yes"/>
    </contour>
  </outline>
</glyph>
<glyph name="segment_l" format="2">
  <outline>
    <contour>
      <point x="278.0" y="96.0" type="line" smooth="yes"/>
      <point x="278.0" y="348.0" type="line" smooth="yes"/>
      <point x="316.0" y="386.0" type="line" smooth="yes"/>
      <point x="354.0" y="348.0" type="line" smooth="yes"/>
      <point x="354.0" y="96.0" type="line" smooth="yes"/>
    </contour>
  </outline>
</glyph>
<glyph name="segment_m" format="2">
  <outline>
    <contour>
      <point x="439.0" y="96.0" type="line" smooth="yes"/>
      <point x="429.0" y="96.0" type="line" smooth="yes"/>
      <point x="374.0" y="201.0" type="line" smooth="yes"/>
      <point x="374.0" y="342.0" type="line" smooth="yes"/>
      <point x="384.0" y="342.0" type="line" smooth="yes"/>
      <point x="439.0" y="237.0" type="line" smooth="yes"/>
    </contour>
  </outline>
</glyph>
<glyph name="segment_r" format="2">
  <advance width="633"/>
  <outline>
    <contour>
      <point x="586.0" y="0.0" type="curve" smooth="yes"/>
      <point x="586.0" y="26.0"/>
      <point x="607.0" y="48.0"/>
      <point x="633.0" y="48.0" type="curve" smooth="yes"/>
      <point x="659.0" y="48.0"/>
      <point x="680.0" y="26.0"/>
      <point x="680.0" y="0.0" type="curve" smooth="yes"/>
      <point x="680.0" y="-26.0"/>
      <point x="659.0" y="-48.0"/>
      <point x="633.0" y="-48.0" type="curve" smooth="yes"/>
      <point x="607.0" y="-48.0"/>
      <point x="586.0" y="-26.0"/>
    </contour>
  </outline>
</glyph>
